<?xml version="1.0" encoding="UTF-8" standalone="no"?>
<!DOCTYPE svg PUBLIC "-//W3C//DTD SVG 1.1//EN" "http://www.w3.org/Graphics/SVG/1.1/DTD/svg11.dtd">
<!--Generated by Intaglio, www.PurgatoryDesign.com-->
<svg version="1.1" viewBox="0,0,576,734" width="576" height="734" xmlns="http://www.w3.org/2000/svg" xmlns:xlink="http://www.w3.org/1999/xlink" xmlns:intaglio="http://purgatorydesign.com/namespaces/intaglio" intaglio:grid="36,36,1,1,0.5,#9999bf,1,0,0,0" intaglio:guides="0.8,#f0f,1,1"><image xlink:href="1.pdf" width="720" height="720" transform="matrix(0.375694,0,0,0.375694,4,4.5)"/><image xlink:href="3.pdf" width="720" height="720" transform="matrix(0.399306,0,0,0.399306,255.5,4.5)"/><path fill="#fffffe" stroke="#000100" d="M305.625,52.75 C305.625,57.6515,301.652,61.625,296.75,61.625 C291.848,61.625,287.875,57.6515,287.875,52.75 C287.875,47.8485,291.848,43.875,296.75,43.875 C301.652,43.875,305.625,47.8485,305.625,52.75 Z"/><path fill="#fffffe" stroke="#000100" d="M431.5,52.75 C431.5,57.6515,427.527,61.625,422.625,61.625 C417.723,61.625,413.75,57.6515,413.75,52.75 C413.75,47.8485,417.723,43.875,422.625,43.875 C427.527,43.875,431.5,47.8485,431.5,52.75 Z"/><path fill="#fffffe" stroke="#000100" d="M58.5,175.5 C58.5,180.402,54.5265,184.375,49.625,184.375 C44.7235,184.375,40.75,180.402,40.75,175.5 C40.75,170.598,44.7235,166.625,49.625,166.625 C54.5265,166.625,58.5,170.598,58.5,175.5 Z"/><path fill="#fffffe" stroke="#000100" d="M58.5,203.375 C58.5,208.277,54.5265,212.25,49.625,212.25 C44.7235,212.25,40.75,208.277,40.75,203.375 C40.75,198.473,44.7235,194.5,49.625,194.5 C54.5265,194.5,58.5,198.473,58.5,203.375 Z"/><text fill="#000100" font-family="Helvetica" font-size="12" transform="matrix(1,0,0,1,294.052,56.9277)" xml:space="preserve"><tspan>1</tspan></text><text fill="#000100" font-family="Helvetica" font-size="12" transform="matrix(1,0,0,1,419.35,56.96)" xml:space="preserve"><tspan>2</tspan></text><text fill="#000100" font-family="Helvetica" font-size="12" transform="matrix(1,0,0,1,46.4053,179.587)" xml:space="preserve"><tspan>3</tspan></text><text fill="#000100" font-family="Helvetica" font-size="12" transform="matrix(1,0,0,1,46.335,207.582)" xml:space="preserve"><tspan>4</tspan></text><path fill="#fffffe" stroke="#000100" d="M58.5,229.5 C58.5,234.402,54.5265,238.375,49.625,238.375 C44.7235,238.375,40.75,234.402,40.75,229.5 C40.75,224.598,44.7235,220.625,49.625,220.625 C54.5265,220.625,58.5,224.598,58.5,229.5 Z"/><text fill="#000100" font-family="Helvetica" font-size="12" transform="matrix(1,0,0,1,46.9268,233.678)" xml:space="preserve"><tspan>1</tspan></text><path fill="#fffffe" stroke="#000100" d="M431.5,52.75 C431.5,57.6515,427.527,61.625,422.625,61.625 C417.723,61.625,413.75,57.6515,413.75,52.75 C413.75,47.8485,417.723,43.875,422.625,43.875 C427.527,43.875,431.5,47.8485,431.5,52.75 Z"/><text fill="#000100" font-family="Helvetica" font-size="12" transform="matrix(1,0,0,1,419.35,56.96)" xml:space="preserve"><tspan>3</tspan></text><path fill="#fffffe" stroke="#000100" d="M243.75,61.875 C243.75,66.7765,239.777,70.75,234.875,70.75 C229.973,70.75,226,66.7765,226,61.875 C226,56.9735,229.973,53,234.875,53 C239.777,53,243.75,56.9735,243.75,61.875 Z"/><text fill="#000100" font-family="Helvetica" font-size="12" transform="matrix(1,0,0,1,231.6,66.085)" xml:space="preserve"><tspan>2</tspan></text><path fill="#fffffe" stroke="#000100" d="M243.75,61.875 C243.75,66.7765,239.777,70.75,234.875,70.75 C229.973,70.75,226,66.7765,226,61.875 C226,56.9735,229.973,53,234.875,53 C239.777,53,243.75,56.9735,243.75,61.875 Z"/><text fill="#000100" font-family="Helvetica" font-size="12" transform="matrix(1,0,0,1,231.6,66.085)" xml:space="preserve"><tspan>2</tspan></text><path fill="#fffffe" stroke="#000100" d="M305.625,170.94 C305.625,175.842,301.652,179.815,296.75,179.815 C291.848,179.815,287.875,175.842,287.875,170.94 C287.875,166.039,291.848,162.065,296.75,162.065 C301.652,162.065,305.625,166.039,305.625,170.94 Z"/><text fill="#000100" font-family="Helvetica" font-size="12" transform="matrix(1,0,0,1,293.475,175.15)" xml:space="preserve"><tspan>2</tspan></text><path fill="#fffffe" stroke="#000100" d="M305.625,170.94 C305.625,175.842,301.652,179.815,296.75,179.815 C291.848,179.815,287.875,175.842,287.875,170.94 C287.875,166.039,291.848,162.065,296.75,162.065 C301.652,162.065,305.625,166.039,305.625,170.94 Z"/><text fill="#000100" font-family="Helvetica" font-size="12" transform="matrix(1,0,0,1,293.475,175.15)" xml:space="preserve"><tspan>2</tspan></text><path fill="#fffffe" stroke="#000100" d="M431.5,171.063 C431.5,175.965,427.527,179.938,422.625,179.938 C417.723,179.938,413.75,175.965,413.75,171.063 C413.75,166.162,417.723,162.188,422.625,162.188 C427.527,162.188,431.5,166.162,431.5,171.063 Z"/><text fill="#000100" font-family="Helvetica" font-size="12" transform="matrix(1,0,0,1,419.35,175.273)" xml:space="preserve"><tspan>2</tspan></text><path fill="#fffffe" stroke="#000100" d="M431.5,171.063 C431.5,175.965,427.527,179.938,422.625,179.938 C417.723,179.938,413.75,175.965,413.75,171.063 C413.75,166.162,417.723,162.188,422.625,162.188 C427.527,162.188,431.5,166.162,431.5,171.063 Z"/><text fill="#000100" font-family="Helvetica" font-size="12" transform="matrix(1,0,0,1,419.35,175.273)" xml:space="preserve"><tspan>4</tspan></text></svg>
